# xmcd
#
# Track frame offsets: 
#        150
#        17239
#        33495
#        52182
#        68459
#        85411
#        108938
#        122391
#        137125
#        151704
#        171850
#        186376
#        200168
#
# Disc length: 2881 seconds
#
# Revision: 0
# Processed by: cddbd v1.5.2PL0 Copyright (c) Steve Scherf et al.
# Submitted via: ExactAudioCopy v0.99pb4
#
DISCID=b10b3f0d
DTITLE=John Ellison - Up From Funk [CD1]
DYEAR=1969
DGENRE=Soul
TTITLE0=You Better Check Yourself
TTITLE1=I Need You Yes I Do
TTITLE2=Don't Neglect Your Baby
TTITLE3=See You Later, Baby
TTITLE4=I Want To Make Love To You
TTITLE5=Willie John's Funk
TTITLE6=Play With Fire
TTITLE7=Keep On Making Love to Me
TTITLE8=Don't Let Nobody Have None of My Love
TTITLE9=You Make Life So Wonderful
TTITLE10=Spend the Rest of My Life Making Love to You
TTITLE11=Sure Want to Get Next to You
TTITLE12=I Don't Want to Cry
EXTD=
EXTT0=
EXTT1=
EXTT2=
EXTT3=
EXTT4=
EXTT5=
EXTT6=
EXTT7=
EXTT8=
EXTT9=
EXTT10=
EXTT11=
EXTT12=
PLAYORDER=
